<svg xmlns="http://www.w3.org/2000/svg" width="128" height="32" viewBox="0 0 128 32">
  <!-- Facebook (0 to 32) -->
  <g transform="translate(0, 0)">
    <path fill="#ffffff" d="M22 16.2h-3.3v11.5h-4.8V16.2h-2.3v-4.1h2.3v-2.7c0-3.2 1.4-5.2 5.3-5.2h3.3v4h-2.1c-1.6 0-1.7.6-1.7 1.7v2.2h3.9l-.6 4.1z"/>
  </g>

  <!-- Instagram (32 to 64) -->
  <g transform="translate(32, 0)">
    <path fill="#ffffff" d="M16 6.3c3.2 0 3.5 0 4.7.1 1.1.1 1.8.2 2.2.4.5.2 1 .5 1.4 1s.8.9 1 1.4c.2.4.3 1 .4 2.2.1 1.2.1 1.5.1 4.7s0 3.5-.1 4.7c-.1 1.1-.2 1.8-.4 2.2-.2.5-.5 1-1 1.4s-.9.8-1.4 1c-.4.2-1 .3-2.2.4-1.2.1-1.5.1-4.7.1s-3.5 0-4.7-.1c-1.1-.1-1.8-.2-2.2-.4-.5-.2-1-.5-1.4-1s-.8-.9-1-1.4c-.2-.4-.3-1-.4-2.2C6.3 19.5 6.3 19.2 6.3 16s0-3.5.1-4.7c.1-1.1.2-1.8.4-2.2.2-.5.5-1 1-1.4s.9-.8 1.4-1c.4-.2 1-.3 2.2-.4 1.2-.1 1.5-.1 4.7-.1M16 3.4c-3.3 0-3.7 0-5 .1-1.3.1-2.2.3-3 .6-.8.3-1.4.7-2 1.3-.6.6-1 1.2-1.3 2-.3.8-.5 1.7-.6 3-.1 1.3-.1 1.7-.1 5s0 3.7.1 5c.1 1.3.3 2.2.6 3 .3.8.7 1.4 1.3 2 .6.6 1.2 1 2 1.3.8.3 1.7.5 3 .6 1.3.1 1.7.1 5 .1s3.7 0 5-.1c1.3-.1 2.2-.3 3-.6.8-.3 1.4-.7 2-1.3.6-.6 1-1.2 1.3-2 .3-.8.5-1.7.6-3 .1-1.3.1-1.7.1-5s0-3.7-.1-5c-.1-1.3-.3-2.2-.6-3-.3-.8-.7-1.4-1.3-2-.6-.6-1.2-1-2-1.3-.8-.3-1.7-.5-3-.6-1.3-.1-1.7-.1-5-.1zm0 6.1c-3.6 0-6.5 2.9-6.5 6.5s2.9 6.5 6.5 6.5 6.5-2.9 6.5-6.5-2.9-6.5-6.5-6.5zm0 10.1c-2 0-3.6-1.6-3.6-3.6s1.6-3.6 3.6-3.6 3.6 1.6 3.6 3.6-1.6 3.6-3.6 3.6zm4.2-10.7c0 .5-.4 1-1 1s-1-.4-1-1 .4-1 1-1 1 .5 1 1z"/>
  </g>

  <!-- Twitter / X (64 to 96) -->
  <g transform="translate(64, 0)">
    <path fill="#ffffff" d="M22.1 7h2.8l-6.1 7 7.2 9.5H20.3L16 17.8l-5.1 5.7H8.1l6.5-7.4L7.8 7h5.8l3.9 5.2L22.1 7zm-1 14.8h1.5L10.3 8.6H8.7l12.4 13.2z"/>
  </g>

  <!-- Location Marker (96 to 128) -->
  <g transform="translate(96, 0)">
    <path fill="#ffffff" d="M16 3c-4.4 0-8 3.6-8 8 0 5.6 7.5 16.8 7.8 17.2.1.2.3.3.5.3s.4-.1.5-.3C17.1 27.8 24 16.6 24 11c0-4.4-3.6-8-8-8zm0 11c-1.7 0-3-1.3-3-3s1.3-3 3-3 3 1.3 3 3-1.3 3-3 3z"/>
  </g>
</svg>
